<?xml version="1.0" encoding="UTF-8" standalone="no"?>
<!-- Created with Inkscape (http://www.inkscape.org/) -->

<svg
   xmlns:dc="http://purl.org/dc/elements/1.1/"
   xmlns:cc="http://creativecommons.org/ns#"
   xmlns:rdf="http://www.w3.org/1999/02/22-rdf-syntax-ns#"
   xmlns:svg="http://www.w3.org/2000/svg"
   xmlns="http://www.w3.org/2000/svg"
   xmlns:sodipodi="http://sodipodi.sourceforge.net/DTD/sodipodi-0.dtd"
   xmlns:inkscape="http://www.inkscape.org/namespaces/inkscape"
   width="1000"
   height="1000"
   viewBox="0 0 999.99999 1000"
   id="svg3370"
   version="1.1"
   inkscape:version="0.91 r13725"
   sodipodi:docname="coen.svg">
  <defs
     id="defs3372" />
  <sodipodi:namedview
     id="base"
     pagecolor="#ffffff"
     bordercolor="#666666"
     borderopacity="1.0"
     inkscape:pageopacity="0.0"
     inkscape:pageshadow="2"
     inkscape:zoom="0.35"
     inkscape:cx="375"
     inkscape:cy="520"
     inkscape:document-units="px"
     inkscape:current-layer="layer1"
     showgrid="false"
     inkscape:window-width="1920"
     inkscape:window-height="1017"
     inkscape:window-x="-8"
     inkscape:window-y="-8"
     inkscape:window-maximized="1"
     units="px" />
  <metadata
     id="metadata3375">
    <rdf:RDF>
      <cc:Work
         rdf:about="">
        <dc:format>image/svg+xml</dc:format>
        <dc:type
           rdf:resource="http://purl.org/dc/dcmitype/StillImage" />
        <dc:title></dc:title>
      </cc:Work>
    </rdf:RDF>
  </metadata>
  <g
     inkscape:label="Layer 1"
     inkscape:groupmode="layer"
     id="layer1"
     transform="translate(0,-52.360313)">
    <path
       style="fill:none;fill-rule:evenodd;stroke:#000000;stroke-width:1px;stroke-linecap:butt;stroke-linejoin:miter;stroke-opacity:1"
       d="m 402.85715,529.50506 c -3.80953,0 -7.73279,-0.92394 -11.42857,0 -0.92395,0.23099 0.67343,2.18371 0,2.85714 -0.67344,0.67344 -1.90477,0 -2.85715,0 -2.85714,0 -5.76977,-0.56033 -8.57143,0 -11.49748,2.2995 -1.31272,2.08494 -8.57142,5.71429 -0.85184,0.42592 -1.95364,-0.30117 -2.85715,0 -2.0203,0.67344 -3.64828,2.34064 -5.71428,2.85714 -2.36968,0.59242 -12.41642,-0.93465 -14.28572,0 -0.85183,0.42592 0.67344,2.18371 0,2.85715 -3.80952,3.80952 -2.85714,-4.76191 -2.85714,2.85714 0,1.04925 -0.11498,11.3136 0,11.42857 0.18308,0.18308 10.89637,5.35948 11.42857,5.71429 1.12067,0.74711 1.65247,2.2548 2.85714,2.85714 2.28572,1.14286 6.28572,-1.14286 8.57143,0 1.20468,0.60234 1.65247,2.2548 2.85715,2.85714 0.75126,0.37563 9.93451,0 11.42857,0 7.61904,0 15.23809,0 22.85714,0 6.66667,0 13.33333,0 20,0 0.95238,0 2.18371,0.67344 2.85714,0 0.67344,-0.67343 -0.67343,-2.18371 0,-2.85714 0.67344,-0.67344 2.18371,0.67343 2.85715,0 1.34687,-1.34687 -1.34687,-4.36742 0,-5.71429 0.67343,-0.67343 2.1837,0.67344 2.85714,0 0.67343,-0.67343 -0.42592,-2.0053 0,-2.85714 1.20468,-2.40935 4.50961,-3.30493 5.71428,-5.71429 0.12178,-0.24356 0.12178,-11.18501 0,-11.42857 -0.60233,-1.20467 -2.2548,-1.65246 -2.85714,-2.85714 -0.43476,-0.86953 0,-7.28469 0,-8.57143 0,-0.95238 -0.67343,-2.18371 0,-2.85714 0.67344,-0.67344 2.18371,0.67343 2.85714,0 0.67344,-0.67344 -0.67343,-2.18371 0,-2.85714 0.67344,-0.67344 2.18371,-0.67344 2.85715,0 0.67343,0.67343 0,1.90476 0,2.85714 0,7.61905 0,15.23809 0,22.85714 0,0.95238 -0.67344,2.18371 0,2.85714 0.67343,0.67344 2.0053,-0.42591 2.85714,0 1.20468,0.60234 1.65247,2.25481 2.85714,2.85715 1.13284,0.56641 7.98733,-0.58411 8.57143,0 0.67344,0.67343 -0.85183,2.43122 0,2.85714 0.67186,0.33593 9.55165,0 11.42857,0 0.95238,0 1.90476,0 2.85715,0 0.95238,0 2.43122,0.85184 2.85714,0 0.60716,-1.21433 0,-11.89143 0,-14.28571 0,-0.95238 0.67343,-2.18371 0,-2.85715 -0.67344,-0.67343 -2.18371,0.67344 -2.85714,0 -0.67344,-0.67343 0,-1.90476 0,-2.85714 -0.95239,0 -2.18371,0.67344 -2.85715,0 -0.67343,-0.67343 0.67344,-2.18371 0,-2.85714 -0.67343,-0.67344 -2.1837,0.67343 -2.85714,0 -0.67344,-0.67344 0,-1.90476 0,-2.85715 -1.90476,-0.95238 -3.69398,-2.1837 -5.71429,-2.85714 -1.13416,-0.37805 -11.42857,0.36538 -11.42857,0 0,-0.95238 1.90476,0 2.85715,0 0.95238,0 1.90476,0 2.85714,0 0.95238,0 2.00531,-0.42592 2.85714,0 1.20468,0.60234 1.65247,2.25481 2.85714,2.85714 0.85184,0.42592 2.00531,-0.42591 2.85715,0 1.20467,0.60234 1.65246,2.25481 2.85714,2.85715 0.85184,0.42592 1.90476,0 2.85714,0 0.95238,0 1.90476,0 2.85715,0 4.7619,0 9.52381,0 14.28571,0 9.52381,0 19.04762,0 28.57143,0 0.95238,0 1.90476,0 2.85714,0 0.95238,0 2.18371,0.67343 2.85714,0 0.67344,-0.67344 -0.67343,-2.18371 0,-2.85715 0.67344,-0.67343 2.43123,0.85184 2.85715,0 0.85183,-1.70367 -0.85184,-4.01061 0,-5.71428 0.42591,-0.85184 2.1837,0.67343 2.85714,0 0.67344,-0.67344 0.67344,-2.18371 0,-2.85714 -0.12949,-0.12949 -12.93858,0 -14.28571,0 -0.95239,0 -2.18371,-0.67344 -2.85715,0 -0.67343,0.67343 0.67344,2.1837 0,2.85714 -0.67343,0.67343 -2.1837,-0.67344 -2.85714,0 -0.67344,0.67343 0,1.90476 0,2.85714 0,5.71429 0,11.42857 0,17.14286 0,0.95238 0,1.90476 0,2.85714 0,0.95238 -0.67344,2.18371 0,2.85714 0.67344,0.67344 2.00531,-0.42591 2.85714,0 13.07602,6.53802 -12.12404,-1.1842 8.57143,5.71429 0.90351,0.30117 2.18371,-0.67343 2.85714,0 5.91153,5.91153 -9.0336,-0.23109 2.85715,5.71429 0.86952,0.43476 7.28469,0 8.57143,0 5.71428,0 11.42857,0 17.14285,0 4.76191,0 9.52381,0 14.28572,0 0.95238,0 2.1837,0.67343 2.85714,0 0.67344,-0.67344 -0.67344,-2.18371 0,-2.85715 1.34687,-1.34687 4.36742,1.34687 5.71429,0 0,-7.61904 -0.95239,0.95238 2.85714,-2.85714 0.67343,-0.67343 -0.67344,-2.18371 0,-2.85714 0.67343,-0.67344 2.18371,0.67343 2.85714,0 1.00291,-1.00291 -0.98676,-12.31219 0,-14.28572 3.53058,-7.06115 2.85714,0.98623 2.85714,-5.71428 0,-3.80953 0,-7.61905 0,-11.42857 0,-0.95238 -0.95238,-2.85715 0,-2.85715 0.96348,0 -0.58498,3.37436 0,5.71429 5.94538,23.78149 -0.19724,-3.44888 5.71429,14.28571 0.53733,1.612 0,6.69398 0,8.57143 0,1.90476 0,3.80953 0,5.71429 0,0.95238 0.95238,2.85714 0,2.85714 -0.95238,0 -0.23099,-1.9332 0,-2.85714 0.73044,-2.92177 1.51027,-5.87769 2.85714,-8.57143 0.60234,-1.20468 1.90476,-1.90476 2.85715,-2.85714 0.95238,-3.80953 1.39877,-7.78266 2.85714,-11.42858 0.50021,-1.25053 1.90476,-1.90476 2.85714,-2.85714 1.90476,-1.90476 4.22007,-3.47296 5.71429,-5.71428 0.52828,-0.79243 0,-1.90477 0,-2.85715 1.90476,-1.90476 3.47296,-4.22006 5.71428,-5.71428 0.79243,-0.52829 2.00531,0.42592 2.85715,0 1.20467,-0.60234 1.65246,-2.25481 2.85714,-2.85715 0.85183,-0.42591 1.90476,0 2.85714,0 0.95238,0 2.00531,-0.42591 2.85714,0 4.84646,2.42323 1.9486,4.02869 2.85715,8.57143 1.18128,5.90642 4.2534,11.29932 5.71428,17.14286 0.60863,2.43449 0,6.05241 0,8.57143 0,3.80952 0,7.61905 0,11.42857 0,0.95238 0,1.90476 0,2.85714 0,0.95238 0.95238,2.85715 0,2.85715 -0.95238,0 0,-1.90477 0,-2.85715"
       id="path3384"
       inkscape:connector-curvature="0" />
  </g>
</svg>
